# xmcd
#
# Track frame offsets: 
#        150
#        24460
#        56150
#        84897
#        101927
#        128902
#        143697
#        157397
#        173170
#        191375
#        206460
#        226227
#        239922
#        257650
#        267035
#        272112
#        275870
#        279270
#        283010
#        286985
#        295735
#        300155
#        304542
#        311165
#        316002
#
# Disc length: 4347 seconds
#
# Revision: 0
# Processed by: cddbd v1.5.2PL0 Copyright (c) Steve Scherf et al.
# Submitted via: ExactAudioCopy v0.95b4
#
DISCID=7210f919
DTITLE=Germaine Thyssens-Valentin - Faure - 13 Barcarolles, Theme and Va
DTITLE=riations
DYEAR=1956
DGENRE=Classical
TTITLE0=Barcarolle No.1 in A minor, op.26
TTITLE1=Barcarolle No.2 in G major, op.41
TTITLE2=Barcarolle No.3 in G flat major, op.42
TTITLE3=Barcarolle No.4 in A flat major, op.44
TTITLE4=Barcarolle No.5 in F sharp minor, op.66
TTITLE5=Barcarolle No.6 in E flat major, op.70
TTITLE6=Barcarolle No.7 in D minor, op.90
TTITLE7=Barcarolle No.8 in D flat major, op.96
TTITLE8=Barcarolle No.9 in A minor, op.101
TTITLE9=Barcarolle No.10 in A minor, op.104 no.2
TTITLE10=Barcarolle No.11 in G minor, op.105
TTITLE11=Barcarolle No.12 in E flat major, op.106a
TTITLE12=Barcarolle No.13 in C major, op.116
TTITLE13=Theme and Variations in C sharp minor, op.73 - Theme
TTITLE14=Theme and Variations in C sharp minor, op.73 - Variation I
TTITLE15=Theme and Variations in C sharp minor, op.73 - Variation II
TTITLE16=Theme and Variations in C sharp minor, op.73 - Variation III
TTITLE17=Theme and Variations in C sharp minor, op.73 - Variation IV
TTITLE18=Theme and Variations in C sharp minor, op.73 - Variation V
TTITLE19=Theme and Variations in C sharp minor, op.73 - Variation VI
TTITLE20=Theme and Variations in C sharp minor, op.73 - Variation VII
TTITLE21=Theme and Variations in C sharp minor, op.73 - Variation VIII
TTITLE22=Theme and Variations in C sharp minor, op.73 - Variation IX
TTITLE23=Theme and Variations in C sharp minor, op.73 - Variation X
TTITLE24=Theme and Variations in C sharp minor, op.73 - Variation XI
EXTD=
EXTT0=
EXTT1=
EXTT2=
EXTT3=
EXTT4=
EXTT5=
EXTT6=
EXTT7=
EXTT8=
EXTT9=
EXTT10=
EXTT11=
EXTT12=
EXTT13=
EXTT14=
EXTT15=
EXTT16=
EXTT17=
EXTT18=
EXTT19=
EXTT20=
EXTT21=
EXTT22=
EXTT23=
EXTT24=
PLAYORDER=
